<svg xmlns="http://www.w3.org/2000/svg" version="1.1" xmlns:xlink="http://www.w3.org/1999/xlink" xmlns:svgjs="http://svgjs.dev/svgjs" width="2000" height="540" viewBox="0 0 2000 540"><g transform="matrix(1,0,0,1,-1.2121211893061172,-1.0643285798529973)"><svg viewBox="0 0 396 107" data-background-color="#f9e17e" preserveAspectRatio="xMidYMid meet" height="540" width="2000" xmlns="http://www.w3.org/2000/svg" xmlns:xlink="http://www.w3.org/1999/xlink"><g id="tight-bounds" transform="matrix(1,0,0,1,0.2400000045173556,0.21089473711901974)"><svg viewBox="0 0 395.52 106.57821052576193" height="106.57821052576193" width="395.52"><g><svg viewBox="0 0 560.0403413305901 150.91044043601133" height="106.57821052576193" width="395.52"><g transform="matrix(1,0,0,1,164.52034133059013,46.633516544206714)"><svg viewBox="0 0 395.52 57.64340734759791" height="57.64340734759791" width="395.52"><g id="textblocktransform"><svg viewBox="0 0 395.52 57.64340734759791" height="57.64340734759791" width="395.52" id="textblock"><g><svg viewBox="0 0 395.52 57.64340734759791" height="57.64340734759791" width="395.52"><g transform="matrix(1,0,0,1,0,0)"><svg width="395.52" viewBox="1.4500000476837158 -35.75 247.69000244140625 36.099998474121094" height="57.64340734759791" data-palette-color="#454545"><path d="M27.2-31.7L25.1-28.05Q24.5-28.75 23.5-29.4 22.5-30.05 21.25-30.58 20-31.1 18.53-31.43 17.05-31.75 15.45-31.75L15.45-31.75Q11.35-31.75 9.4-30.2 7.45-28.65 7.45-25.95L7.45-25.95Q7.45-24.05 8.45-22.95 9.45-21.85 11.53-21.15 13.6-20.45 16.8-19.7L16.8-19.7Q20.5-18.9 23.2-17.75 25.9-16.6 27.35-14.68 28.8-12.75 28.8-9.55L28.8-9.55Q28.8-7 27.83-5.13 26.85-3.25 25.1-2.02 23.35-0.8 21-0.23 18.65 0.35 15.9 0.35L15.9 0.35Q13.2 0.35 10.63-0.23 8.05-0.8 5.75-1.9 3.45-3 1.45-4.65L1.45-4.65 3.6-8.45Q4.4-7.6 5.68-6.78 6.95-5.95 8.58-5.25 10.2-4.55 12.1-4.13 14-3.7 16-3.7L16-3.7Q19.8-3.7 21.9-5.08 24-6.45 24-9.1L24-9.1Q24-11.1 22.83-12.3 21.65-13.5 19.35-14.3 17.05-15.1 13.75-15.9L13.75-15.9Q10.15-16.8 7.7-17.88 5.25-18.95 4.03-20.7 2.8-22.45 2.8-25.25L2.8-25.25Q2.8-28.65 4.45-31 6.1-33.35 9-34.55 11.9-35.75 15.55-35.75L15.55-35.75Q17.95-35.75 20.03-35.25 22.1-34.75 23.9-33.85 25.7-32.95 27.2-31.7L27.2-31.7ZM58.75-35.5L63.25-35.5 63.25 0 58.75 0 58.75-16.15 39.2-16.15 39.2 0 34.7 0 34.7-35.5 39.2-35.5 39.2-20.15 58.75-20.15 58.75-35.5ZM86.4 0.25L86.4 0.25Q82.15 0.25 79.25-1.23 76.34-2.7 74.59-5.23 72.84-7.75 72.05-10.95 71.25-14.15 71.25-17.55L71.25-17.55 71.25-35.5 75.75-35.5 75.75-17.55Q75.75-14.95 76.27-12.48 76.8-10 78-8.05 79.2-6.1 81.25-4.95 83.3-3.8 86.34-3.8L86.34-3.8Q89.45-3.8 91.5-4.98 93.55-6.15 94.75-8.13 95.95-10.1 96.47-12.55 97-15 97-17.55L97-17.55 97-35.5 101.5-35.5 101.5-17.55Q101.5-13.95 100.67-10.73 99.84-7.5 98.05-5.05 96.25-2.6 93.37-1.18 90.5 0.25 86.4 0.25ZM136.74-9.15L136.74-9.15Q136.74-6.4 135.34-4.35 133.94-2.3 131.57-1.15 129.19 0 126.34 0L126.34 0 109.49 0 109.49-35.5 127.14-35.5Q129.64-35.5 131.47-34.18 133.29-32.85 134.27-30.78 135.24-28.7 135.24-26.45L135.24-26.45Q135.24-23.85 133.92-21.58 132.59-19.3 130.14-18.2L130.14-18.2Q133.19-17.3 134.97-14.88 136.74-12.45 136.74-9.15ZM132.19-9.95L132.19-9.95Q132.19-11.6 131.47-13 130.74-14.4 129.52-15.25 128.29-16.1 126.69-16.1L126.69-16.1 113.99-16.1 113.99-3.9 126.34-3.9Q127.99-3.9 129.32-4.75 130.64-5.6 131.42-6.98 132.19-8.35 132.19-9.95ZM125.59-31.6L113.99-31.6 113.99-19.75 125.29-19.75Q126.89-19.75 128.12-20.55 129.34-21.35 130.07-22.7 130.79-24.05 130.79-25.65L130.79-25.65Q130.79-27.35 130.12-28.68 129.44-30 128.27-30.8 127.09-31.6 125.59-31.6L125.59-31.6ZM167.09-35.5L171.59-35.5 171.59 0 167.09 0 167.09-16.15 147.54-16.15 147.54 0 143.04 0 143.04-35.5 147.54-35.5 147.54-20.15 167.09-20.15 167.09-35.5ZM176.34 0L190.89-35.5 194.69-35.5 209.19 0 204.39 0 200.19-10.4 185.29-10.4 181.14 0 176.34 0ZM186.19-13.9L199.19-13.9 192.79-30.3 186.19-13.9ZM249.14 0L244.64 0 244.64-27.1 232.94-6.25 230.19-6.25 218.44-27.1 218.44 0 213.94 0 213.94-35.5 218.69-35.5 231.54-12.45 244.44-35.5 249.14-35.5 249.14 0Z" opacity="1" transform="matrix(1,0,0,1,0,0)" fill="#ffffff" class="wordmark-text-0" data-fill-palette-color="primary" id="text-0"></path></svg></g></svg></g></svg></g></svg></g><g><svg viewBox="0 0 150.9121162975986 150.91044043601133" height="150.91044043601133" width="150.9121162975986"><g><svg xmlns="http://www.w3.org/2000/svg" xmlns:xlink="http://www.w3.org/1999/xlink" version="1.1" x="0" y="0" viewBox="4.9670000076293945 5 90.0009994506836 90" enable-background="new 0 0 100 100" xml:space="preserve" height="150.91044043601133" width="150.9121162975986" class="icon-icon-0" data-fill-palette-color="accent" id="icon-0"><g fill="#454545" data-fill-palette-color="accent"><polygon points="81.588,69.219 76.042,77.733 49.901,5 30.566,58.797 24.486,43.546 4.967,95 17.555,95 45,95 64.794,95 82.249,95    94.968,95  " fill="#ffffff" data-fill-palette-color="accent"></polygon></g></svg></g></svg></g></svg></g><defs></defs></svg><rect width="395.52" height="106.57821052576193" fill="none" stroke="none" visibility="hidden"></rect></g></svg></g></svg>